<svg id="Layer_1" data-name="Layer 1" xmlns="http://www.w3.org/2000/svg" viewBox="0 0 512 512"><defs><style>.cls-1{fill:#d9e4e8;}.cls-2{fill:#9bbdc6;}.cls-3{fill:#141f38;}</style></defs><title>two-documents-filled</title><path class="cls-1" d="M460.8,158.9V371.2a51.26,51.26,0,0,1-51.2,51.2H396.8V448a64,64,0,0,1-64,64H102.4a64,64,0,0,1-64-64V140.8a64,64,0,0,1,64-64H128V64a51.26,51.26,0,0,1,51.2-51.2H314.7Z"/><path class="cls-2" d="M371.2,153.6A51.26,51.26,0,0,1,320,102.4V18.12L455.14,153.6Z"/><path class="cls-3" d="M320,0H179.2a64,64,0,0,0-64,64V76.8H102.4a64,64,0,0,0-64,64V448a64,64,0,0,0,64,64H332.8a64,64,0,0,0,64-64V435.2h12.8a64,64,0,0,0,64-64V153.6ZM424.29,140.8H371.2a38.44,38.44,0,0,1-38.4-38.4V49.08ZM371.2,448a38.44,38.44,0,0,1-38.4,38.4H102.4A38.44,38.44,0,0,1,64,448V140.8a38.44,38.44,0,0,1,38.4-38.4h12.8V371.2a64,64,0,0,0,64,64h192ZM448,371.2a38.44,38.44,0,0,1-38.4,38.4H179.2a38.44,38.44,0,0,1-38.4-38.4V64a38.44,38.44,0,0,1,38.4-38.4h128v76.8a64,64,0,0,0,64,64H448ZM217.6,217.6a12.8,12.8,0,0,1,12.8-12.8h76.8a12.8,12.8,0,1,1,0,25.6H230.4A12.8,12.8,0,0,1,217.6,217.6Zm153.6,51.2a12.8,12.8,0,0,1-12.8,12.8h-128a12.8,12.8,0,0,1,0-25.6h128A12.8,12.8,0,0,1,371.2,268.8Zm-.38,51.2A12.8,12.8,0,0,1,358,332.8H230.4a12.8,12.8,0,1,1,0-25.6H358A12.8,12.8,0,0,1,370.82,320Z"/></svg>